<?xml version="1.0" encoding="UTF-8" standalone="no"?>
<!-- Created with Inkscape (http://www.inkscape.org/) -->

<svg
   width="122mm"
   height="74mm"
   viewBox="0 0 122 74"
   version="1.1"
   id="svg1"
   xml:space="preserve"
   inkscape:export-filename="mdumllatex.png"
   inkscape:export-xdpi="96"
   inkscape:export-ydpi="96"
   inkscape:version="1.3.2 (091e20ef0f, 2023-11-25, custom)"
   sodipodi:docname="bayes.svg"
   xmlns:inkscape="http://www.inkscape.org/namespaces/inkscape"
   xmlns:sodipodi="http://sodipodi.sourceforge.net/DTD/sodipodi-0.dtd"
   xmlns="http://www.w3.org/2000/svg"
   xmlns:svg="http://www.w3.org/2000/svg"
   xmlns:ns25="http://www.iki.fi/pav/software/textext/"><sodipodi:namedview
     id="namedview1"
     pagecolor="#ffffff"
     bordercolor="#000000"
     borderopacity="0.25"
     inkscape:showpageshadow="2"
     inkscape:pageopacity="0.0"
     inkscape:pagecheckerboard="0"
     inkscape:deskcolor="#d1d1d1"
     inkscape:document-units="mm"
     inkscape:zoom="0.95677609"
     inkscape:cx="256.06827"
     inkscape:cy="44.420006"
     inkscape:window-width="1354"
     inkscape:window-height="732"
     inkscape:window-x="5"
     inkscape:window-y="29"
     inkscape:window-maximized="1"
     inkscape:current-layer="layer1" /><defs
     id="defs1" /><g
     inkscape:label="Layer 1"
     inkscape:groupmode="layer"
     id="layer1"><text
       xml:space="preserve"
       style="font-style:normal;font-variant:normal;font-weight:normal;font-stretch:normal;font-size:16px;line-height:normal;font-family:'CMU Serif';-inkscape-font-specification:'CMU Serif';font-variant-ligatures:normal;font-variant-position:normal;font-variant-caps:normal;font-variant-numeric:normal;font-variant-alternates:normal;font-variant-east-asian:normal;font-feature-settings:normal;font-variation-settings:normal;text-indent:0;text-align:start;text-decoration-line:none;text-decoration-style:solid;text-decoration-color:#000000;letter-spacing:normal;word-spacing:normal;text-transform:none;writing-mode:lr-tb;direction:ltr;text-orientation:mixed;dominant-baseline:auto;baseline-shift:baseline;text-anchor:start;white-space:normal;shape-padding:0;shape-margin:0;inline-size:0;opacity:1;vector-effect:none;fill:none;fill-opacity:1;stroke:#000000;stroke-width:2.26772;stroke-linecap:butt;stroke-linejoin:miter;stroke-miterlimit:4;stroke-dasharray:none;stroke-dashoffset:0;stroke-opacity:1;-inkscape-stroke:none;stop-color:#000000;stop-opacity:1"
       x="100.64287"
       y="96.458145"
       id="text3"
       transform="matrix(0.34704009,0,0,0.34704009,-24.726459,-21.850082)"><tspan
         sodipodi:role="line"
         id="tspan3"
         x="100.64287"
         y="96.458145"
         style="fill:#000000;fill-opacity:1;stroke:none">\begin{equation}</tspan><tspan
         sodipodi:role="line"
         x="100.64287"
         y="116.45815"
         id="tspan4"
         style="fill:#000000;fill-opacity:1;stroke:none">P(h|d) = \frac{P(d|h) \cdot P(h)}{P(d)}</tspan><tspan
         sodipodi:role="line"
         x="100.64287"
         y="136.45815"
         id="tspan5"
         style="fill:#000000;fill-opacity:1;stroke:none">\end{equation}</tspan></text><g
       transform="matrix(0.352778,0,0,0.352778,26.664851,43.807699)"
       ns25:version="1.10.2"
       ns25:texconverter="pdflatex"
       ns25:pdfconverter="inkscape"
       ns25:text="\\begin{equation}\nP(h|d) = \\frac{P(d|h) \\cdot P(h)}{P(d)}\n\\end{equation}"
       ns25:preamble="/usr/share/inkscape/extensions/textext/default_packages.tex"
       ns25:scale="1.0"
       ns25:alignment="middle center"
       ns25:stroke-to-path="0"
       ns25:inkscapeversion="1.3.2"
       id="g5761"
       ns25:jacobian_sqrt="0.352778"><defs
   id="id-817d489c-bbbe-4924-9244-aebc13d44367">
    <g
   id="id-8a198335-edb6-4c3b-87c1-8719e3a5bae1">
      <g
   id="id-9e0d6948-2e0e-4907-915f-e73624ad574b">
        <path
   d="m 3.53125,-3.796875 h 2.015625 c 1.65625,0 3.296875,-1.21875 3.296875,-2.59375 0,-0.921875 -0.78125,-1.765625 -2.296875,-1.765625 h -3.6875 c -0.234375,0 -0.34375,0 -0.34375,0.21875 0,0.125 0.109375,0.125 0.296875,0.125 0.71875,0 0.71875,0.09375 0.71875,0.21875 0,0.03125 0,0.09375 -0.046875,0.28125 L 1.875,-0.890625 C 1.765625,-0.46875 1.75,-0.34375 0.90625,-0.34375 c -0.21875,0 -0.34375,0 -0.34375,0.21875 C 0.5625,0 0.671875,0 0.734375,0 0.96875,0 1.203125,-0.03125 1.4375,-0.03125 H 2.828125 C 3.0625,-0.03125 3.3125,0 3.53125,0 3.640625,0 3.765625,0 3.765625,-0.234375 3.765625,-0.34375 3.65625,-0.34375 3.484375,-0.34375 2.765625,-0.34375 2.75,-0.4375 2.75,-0.546875 2.75,-0.609375 2.765625,-0.6875 2.765625,-0.75 Z m 0.875,-3.546875 C 4.5,-7.796875 4.546875,-7.8125 5.015625,-7.8125 h 1.1875 c 0.890625,0 1.640625,0.28125 1.640625,1.171875 0,0.3125 -0.15625,1.328125 -0.703125,1.890625 -0.203125,0.203125 -0.78125,0.65625 -1.875,0.65625 h -1.6875 z m 0,0"
   id="id-140bd83c-3ae9-406a-b4e1-31b71d2bb650" />
      </g>
      <g
   id="id-c3c5626c-4e3b-48a7-a951-547a7569caeb">
        <path
   d="m 3.359375,-8 c 0.015625,-0.046875 0.03125,-0.109375 0.03125,-0.171875 0,-0.125 -0.109375,-0.125 -0.140625,-0.125 -0.015625,0 -0.59375,0.046875 -0.65625,0.0625 C 2.390625,-8.21875 2.21875,-8.203125 2,-8.1875 c -0.296875,0.03125 -0.390625,0.03125 -0.390625,0.25 0,0.125 0.09375,0.125 0.265625,0.125 0.59375,0 0.59375,0.109375 0.59375,0.21875 0,0.078125 -0.015625,0.171875 -0.03125,0.203125 L 0.703125,-0.46875 C 0.65625,-0.28125 0.65625,-0.265625 0.65625,-0.1875 c 0,0.265625 0.203125,0.3125 0.328125,0.3125 0.203125,0 0.359375,-0.15625 0.421875,-0.296875 L 1.9375,-2.328125 C 2,-2.59375 2.0625,-2.84375 2.125,-3.109375 2.265625,-3.609375 2.265625,-3.625 2.484375,-3.96875 2.71875,-4.3125 3.25,-5.03125 4.171875,-5.03125 c 0.484375,0 0.640625,0.359375 0.640625,0.828125 0,0.671875 -0.46875,1.984375 -0.71875,2.703125 -0.109375,0.28125 -0.171875,0.4375 -0.171875,0.65625 0,0.53125 0.375,0.96875 0.9375,0.96875 1.109375,0 1.53125,-1.765625 1.53125,-1.828125 0,-0.0625 -0.046875,-0.109375 -0.109375,-0.109375 -0.109375,0 -0.125,0.03125 -0.1875,0.234375 C 5.828125,-0.625 5.375,-0.125 4.90625,-0.125 c -0.125,0 -0.3125,0 -0.3125,-0.390625 0,-0.3125 0.140625,-0.6875 0.1875,-0.828125 0.21875,-0.5625 0.75,-1.984375 0.75,-2.671875 0,-0.71875 -0.421875,-1.25 -1.328125,-1.25 -0.671875,0 -1.28125,0.3125 -1.765625,0.9375 z m 0,0"
   id="id-cf8fbad9-37fa-4167-8475-53cad0b81c2f" />
      </g>
      <g
   id="id-92ed1f43-d358-4010-8c4e-44857cc33aed">
        <path
   d="m 6.015625,-8 c 0.015625,-0.046875 0.03125,-0.109375 0.03125,-0.171875 0,-0.125 -0.125,-0.125 -0.140625,-0.125 -0.015625,0 -0.59375,0.046875 -0.65625,0.0625 -0.203125,0.015625 -0.390625,0.03125 -0.59375,0.046875 -0.3125,0.03125 -0.390625,0.03125 -0.390625,0.25 0,0.125 0.09375,0.125 0.265625,0.125 0.578125,0 0.59375,0.109375 0.59375,0.21875 0,0.078125 -0.015625,0.171875 -0.03125,0.203125 l -0.734375,2.90625 c -0.125,-0.3125 -0.453125,-0.78125 -1.078125,-0.78125 -1.34375,0 -2.796875,1.734375 -2.796875,3.515625 0,1.171875 0.6875,1.875 1.5,1.875 0.65625,0 1.21875,-0.515625 1.546875,-0.90625 0.125,0.703125 0.6875,0.90625 1.046875,0.90625 0.359375,0 0.640625,-0.21875 0.859375,-0.65625 0.1875,-0.40625 0.359375,-1.125 0.359375,-1.171875 0,-0.0625 -0.046875,-0.109375 -0.125,-0.109375 C 5.5625,-1.8125 5.5625,-1.75 5.515625,-1.578125 5.328125,-0.875 5.109375,-0.125 4.609375,-0.125 4.265625,-0.125 4.25,-0.4375 4.25,-0.671875 c 0,-0.046875 0,-0.296875 0.078125,-0.625 z M 3.59375,-1.421875 C 3.53125,-1.21875 3.53125,-1.1875 3.375,-0.96875 3.109375,-0.640625 2.578125,-0.125 2.015625,-0.125 1.53125,-0.125 1.25,-0.5625 1.25,-1.265625 c 0,-0.65625 0.375,-2 0.609375,-2.5 0.40625,-0.84375 0.96875,-1.265625 1.421875,-1.265625 0.796875,0 0.953125,0.984375 0.953125,1.078125 0,0.015625 -0.03125,0.15625 -0.046875,0.1875 z m 0,0"
   id="id-c3f09326-33e1-4577-9066-0ff0d39a394d" />
      </g>
      <g
   id="id-44c557ef-f1a3-4f1f-aaa1-9552db1bedd7">
        <path
   d="m 3.890625,2.90625 c 0,-0.03125 0,-0.0625 -0.203125,-0.265625 C 2.484375,1.4375 1.8125,-0.53125 1.8125,-2.96875 c 0,-2.328125 0.5625,-4.328125 1.953125,-5.734375 0.125,-0.109375 0.125,-0.125 0.125,-0.171875 0,-0.0625 -0.0625,-0.09375 -0.109375,-0.09375 -0.15625,0 -1.140625,0.859375 -1.71875,2.03125 -0.609375,1.21875 -0.890625,2.484375 -0.890625,3.96875 0,1.0625 0.171875,2.484375 0.78125,3.75 C 2.671875,2.21875 3.640625,3 3.78125,3 3.828125,3 3.890625,2.96875 3.890625,2.90625 Z m 0,0"
   id="id-f25e504c-5e1e-4955-963e-25941c656418" />
      </g>
      <g
   id="id-403ab2de-1fbd-44cd-b86a-1bde5bd5ce70">
        <path
   d="M 3.375,-2.96875 C 3.375,-3.890625 3.25,-5.359375 2.578125,-6.75 1.875,-8.1875 0.890625,-8.96875 0.765625,-8.96875 c -0.046875,0 -0.109375,0.03125 -0.109375,0.09375 0,0.046875 0,0.0625 0.203125,0.265625 1.203125,1.203125 1.859375,3.1875 1.859375,5.625 0,2.3125 -0.5625,4.3125 -1.9375,5.71875 C 0.65625,2.84375 0.65625,2.875 0.65625,2.90625 0.65625,2.96875 0.71875,3 0.765625,3 0.921875,3 1.90625,2.140625 2.484375,0.96875 3.09375,-0.25 3.375,-1.546875 3.375,-2.96875 Z m 0,0"
   id="id-dc9b15a6-11a9-47c2-97b6-13ce16c2406a" />
      </g>
      <g
   id="id-bba595de-ed0c-4ca4-861d-da40e617ee2b">
        <path
   d="m 8.0625,-3.875 c 0.171875,0 0.390625,0 0.390625,-0.21875 C 8.453125,-4.3125 8.25,-4.3125 8.0625,-4.3125 H 1.03125 c -0.171875,0 -0.390625,0 -0.390625,0.21875 0,0.21875 0.203125,0.21875 0.390625,0.21875 z m 0,2.21875 c 0.171875,0 0.390625,0 0.390625,-0.203125 C 8.453125,-2.09375 8.25,-2.09375 8.0625,-2.09375 H 1.03125 c -0.171875,0 -0.390625,0 -0.390625,0.21875 0,0.21875 0.203125,0.21875 0.390625,0.21875 z m 0,0"
   id="id-53552875-3b9a-4bee-9697-56de012d7a0d" />
      </g>
      <g
   id="id-ac11cfae-793a-497d-b156-380ccce5f4fe">
        <path
   d="m 3.4375,-7.65625 c 0,-0.28125 0,-0.296875 -0.234375,-0.296875 C 2.921875,-7.625 2.3125,-7.1875 1.09375,-7.1875 v 0.34375 c 0.265625,0 0.859375,0 1.53125,-0.296875 v 6.21875 c 0,0.4375 -0.046875,0.578125 -1.09375,0.578125 h -0.375 V 0 c 0.328125,-0.03125 1.484375,-0.03125 1.875,-0.03125 0.40625,0 1.546875,0 1.875,0.03125 v -0.34375 h -0.375 c -1.046875,0 -1.09375,-0.140625 -1.09375,-0.578125 z m 0,0"
   id="id-2d915745-261b-46ce-837f-ab396902db55" />
      </g>
      <g
   id="id-f50f5c89-2d8d-4a8d-99c0-2ad41b328b78">
        <path
   d="m 1.90625,-8.53125 c 0,-0.21875 0,-0.4375 -0.25,-0.4375 -0.234375,0 -0.234375,0.21875 -0.234375,0.4375 V 2.5625 c 0,0.203125 0,0.421875 0.234375,0.421875 0.25,0 0.25,-0.21875 0.25,-0.421875 z m 0,0"
   id="id-632b84b2-70df-4421-9025-ffdcb2c98aab" />
      </g>
      <g
   id="id-a55da866-69c1-440d-bae4-dc544f848b41">
        <path
   d="m 2.296875,-2.984375 c 0,-0.34375 -0.28125,-0.640625 -0.640625,-0.640625 -0.34375,0 -0.625,0.296875 -0.625,0.640625 0,0.34375 0.28125,0.625 0.625,0.625 0.359375,0 0.640625,-0.28125 0.640625,-0.625 z m 0,0"
   id="id-7ea9c89a-eba6-4da8-b167-4a799fed2869" />
      </g>
    </g>
  </defs>
  
  
  
  
  
  
  
  
  
  
  
  
  
  
  
  
  
  
  
  
  
  
  <g
   id="g5"
   transform="matrix(2.4135902,0,0,2.4135902,-46.118,-13.02695)"><g
     fill="#000000"
     fill-opacity="1"
     id="id-d9609977-dcdf-4c9f-b98a-8f5435bd55d5"
     transform="translate(-245.377,-138.747)">
    <g
   transform="translate(244.815,155.804)"
   id="g7814"><path
   d="m 3.53125,-3.796875 h 2.015625 c 1.65625,0 3.296875,-1.21875 3.296875,-2.59375 0,-0.921875 -0.78125,-1.765625 -2.296875,-1.765625 h -3.6875 c -0.234375,0 -0.34375,0 -0.34375,0.21875 0,0.125 0.109375,0.125 0.296875,0.125 0.71875,0 0.71875,0.09375 0.71875,0.21875 0,0.03125 0,0.09375 -0.046875,0.28125 L 1.875,-0.890625 C 1.765625,-0.46875 1.75,-0.34375 0.90625,-0.34375 c -0.21875,0 -0.34375,0 -0.34375,0.21875 C 0.5625,0 0.671875,0 0.734375,0 0.96875,0 1.203125,-0.03125 1.4375,-0.03125 H 2.828125 C 3.0625,-0.03125 3.3125,0 3.53125,0 3.640625,0 3.765625,0 3.765625,-0.234375 3.765625,-0.34375 3.65625,-0.34375 3.484375,-0.34375 2.765625,-0.34375 2.75,-0.4375 2.75,-0.546875 2.75,-0.609375 2.765625,-0.6875 2.765625,-0.75 Z m 0.875,-3.546875 C 4.5,-7.796875 4.546875,-7.8125 5.015625,-7.8125 h 1.1875 c 0.890625,0 1.640625,0.28125 1.640625,1.171875 0,0.3125 -0.15625,1.328125 -0.703125,1.890625 -0.203125,0.203125 -0.78125,0.65625 -1.875,0.65625 h -1.6875 z m 0,0"
   id="id-8d85065f-7aa2-4c79-bdfe-9b5c359c01e3" />
      </g></g><g
     fill="#000000"
     fill-opacity="1"
     id="id-20f6dcad-6ed5-4614-95ab-21b273e481fa"
     transform="translate(-245.377,-138.747)">
    <g
   transform="translate(253.986,155.804)"
   id="g5780"><path
   d="m 3.890625,2.90625 c 0,-0.03125 0,-0.0625 -0.203125,-0.265625 C 2.484375,1.4375 1.8125,-0.53125 1.8125,-2.96875 c 0,-2.328125 0.5625,-4.328125 1.953125,-5.734375 0.125,-0.109375 0.125,-0.125 0.125,-0.171875 0,-0.0625 -0.0625,-0.09375 -0.109375,-0.09375 -0.15625,0 -1.140625,0.859375 -1.71875,2.03125 -0.609375,1.21875 -0.890625,2.484375 -0.890625,3.96875 0,1.0625 0.171875,2.484375 0.78125,3.75 C 2.671875,2.21875 3.640625,3 3.78125,3 3.828125,3 3.890625,2.96875 3.890625,2.90625 Z m 0,0"
   id="id-37717ec0-5540-4506-b030-05e6b0063511" />
      </g></g><g
     fill="#000000"
     fill-opacity="1"
     id="id-b8fc21fb-5cae-46bb-8e4e-47b6b7386eb3"
     transform="translate(-245.377,-138.747)">
    <g
   transform="translate(258.538,155.804)"
   id="g7671"><path
   d="m 3.359375,-8 c 0.015625,-0.046875 0.03125,-0.109375 0.03125,-0.171875 0,-0.125 -0.109375,-0.125 -0.140625,-0.125 -0.015625,0 -0.59375,0.046875 -0.65625,0.0625 C 2.390625,-8.21875 2.21875,-8.203125 2,-8.1875 c -0.296875,0.03125 -0.390625,0.03125 -0.390625,0.25 0,0.125 0.09375,0.125 0.265625,0.125 0.59375,0 0.59375,0.109375 0.59375,0.21875 0,0.078125 -0.015625,0.171875 -0.03125,0.203125 L 0.703125,-0.46875 C 0.65625,-0.28125 0.65625,-0.265625 0.65625,-0.1875 c 0,0.265625 0.203125,0.3125 0.328125,0.3125 0.203125,0 0.359375,-0.15625 0.421875,-0.296875 L 1.9375,-2.328125 C 2,-2.59375 2.0625,-2.84375 2.125,-3.109375 2.265625,-3.609375 2.265625,-3.625 2.484375,-3.96875 2.71875,-4.3125 3.25,-5.03125 4.171875,-5.03125 c 0.484375,0 0.640625,0.359375 0.640625,0.828125 0,0.671875 -0.46875,1.984375 -0.71875,2.703125 -0.109375,0.28125 -0.171875,0.4375 -0.171875,0.65625 0,0.53125 0.375,0.96875 0.9375,0.96875 1.109375,0 1.53125,-1.765625 1.53125,-1.828125 0,-0.0625 -0.046875,-0.109375 -0.109375,-0.109375 -0.109375,0 -0.125,0.03125 -0.1875,0.234375 C 5.828125,-0.625 5.375,-0.125 4.90625,-0.125 c -0.125,0 -0.3125,0 -0.3125,-0.390625 0,-0.3125 0.140625,-0.6875 0.1875,-0.828125 0.21875,-0.5625 0.75,-1.984375 0.75,-2.671875 0,-0.71875 -0.421875,-1.25 -1.328125,-1.25 -0.671875,0 -1.28125,0.3125 -1.765625,0.9375 z m 0,0"
   id="id-0b6e47fa-2f58-4f13-9e97-555104aaa15e" />
      </g></g><g
     fill="#000000"
     fill-opacity="1"
     id="id-17c8aeb1-3ac2-4f8a-a339-c1f98e3db5c3"
     transform="translate(-245.377,-138.747)">
    <g
   transform="translate(265.277,155.804)"
   id="g4073"><path
   d="m 1.90625,-8.53125 c 0,-0.21875 0,-0.4375 -0.25,-0.4375 -0.234375,0 -0.234375,0.21875 -0.234375,0.4375 V 2.5625 c 0,0.203125 0,0.421875 0.234375,0.421875 0.25,0 0.25,-0.21875 0.25,-0.421875 z m 0,0"
   id="id-a2a9e609-b44b-4786-b630-a3a6a388ad77" />
      </g></g><g
     fill="#000000"
     fill-opacity="1"
     id="id-ecd0f096-00aa-44ef-96c0-f4d7a98ddd17"
     transform="translate(-245.377,-138.747)">
    <g
   transform="translate(268.598,155.804)"
   id="g7329"><path
   d="m 6.015625,-8 c 0.015625,-0.046875 0.03125,-0.109375 0.03125,-0.171875 0,-0.125 -0.125,-0.125 -0.140625,-0.125 -0.015625,0 -0.59375,0.046875 -0.65625,0.0625 -0.203125,0.015625 -0.390625,0.03125 -0.59375,0.046875 -0.3125,0.03125 -0.390625,0.03125 -0.390625,0.25 0,0.125 0.09375,0.125 0.265625,0.125 0.578125,0 0.59375,0.109375 0.59375,0.21875 0,0.078125 -0.015625,0.171875 -0.03125,0.203125 l -0.734375,2.90625 c -0.125,-0.3125 -0.453125,-0.78125 -1.078125,-0.78125 -1.34375,0 -2.796875,1.734375 -2.796875,3.515625 0,1.171875 0.6875,1.875 1.5,1.875 0.65625,0 1.21875,-0.515625 1.546875,-0.90625 0.125,0.703125 0.6875,0.90625 1.046875,0.90625 0.359375,0 0.640625,-0.21875 0.859375,-0.65625 0.1875,-0.40625 0.359375,-1.125 0.359375,-1.171875 0,-0.0625 -0.046875,-0.109375 -0.125,-0.109375 C 5.5625,-1.8125 5.5625,-1.75 5.515625,-1.578125 5.328125,-0.875 5.109375,-0.125 4.609375,-0.125 4.265625,-0.125 4.25,-0.4375 4.25,-0.671875 c 0,-0.046875 0,-0.296875 0.078125,-0.625 z M 3.59375,-1.421875 C 3.53125,-1.21875 3.53125,-1.1875 3.375,-0.96875 3.109375,-0.640625 2.578125,-0.125 2.015625,-0.125 1.53125,-0.125 1.25,-0.5625 1.25,-1.265625 c 0,-0.65625 0.375,-2 0.609375,-2.5 0.40625,-0.84375 0.96875,-1.265625 1.421875,-1.265625 0.796875,0 0.953125,0.984375 0.953125,1.078125 0,0.015625 -0.03125,0.15625 -0.046875,0.1875 z m 0,0"
   id="id-405fab15-1718-421c-af82-782814fc26a8" />
      </g></g><g
     fill="#000000"
     fill-opacity="1"
     id="id-6e280f97-c6e2-422a-af24-991975dcbd6a"
     transform="translate(-245.377,-138.747)">
    <g
   transform="translate(274.681,155.804)"
   id="g9388"><path
   d="M 3.375,-2.96875 C 3.375,-3.890625 3.25,-5.359375 2.578125,-6.75 1.875,-8.1875 0.890625,-8.96875 0.765625,-8.96875 c -0.046875,0 -0.109375,0.03125 -0.109375,0.09375 0,0.046875 0,0.0625 0.203125,0.265625 1.203125,1.203125 1.859375,3.1875 1.859375,5.625 0,2.3125 -0.5625,4.3125 -1.9375,5.71875 C 0.65625,2.84375 0.65625,2.875 0.65625,2.90625 0.65625,2.96875 0.71875,3 0.765625,3 0.921875,3 1.90625,2.140625 2.484375,0.96875 3.09375,-0.25 3.375,-1.546875 3.375,-2.96875 Z m 0,0"
   id="id-0cff585a-ef87-40ad-9fb4-94acc04840a3" />
      </g></g><g
     fill="#000000"
     fill-opacity="1"
     id="id-fadd760a-c696-4daa-8a30-b713dcc25324"
     transform="translate(-245.377,-138.747)">
    <g
   transform="translate(282.557,155.804)"
   id="g9365"><path
   d="m 8.0625,-3.875 c 0.171875,0 0.390625,0 0.390625,-0.21875 C 8.453125,-4.3125 8.25,-4.3125 8.0625,-4.3125 H 1.03125 c -0.171875,0 -0.390625,0 -0.390625,0.21875 0,0.21875 0.203125,0.21875 0.390625,0.21875 z m 0,2.21875 c 0.171875,0 0.390625,0 0.390625,-0.203125 C 8.453125,-2.09375 8.25,-2.09375 8.0625,-2.09375 H 1.03125 c -0.171875,0 -0.390625,0 -0.390625,0.21875 0,0.21875 0.203125,0.21875 0.390625,0.21875 z m 0,0"
   id="id-e236be6d-84b2-45ec-bca0-d5a03f05a011" />
      </g></g><g
     fill="#000000"
     fill-opacity="1"
     id="id-4b9149f8-b28f-41bc-8d0d-7b73d5d5f323"
     transform="translate(-245.377,-138.747)">
    <g
   transform="translate(296.175,147.716)"
   id="g3931"><path
   d="m 3.53125,-3.796875 h 2.015625 c 1.65625,0 3.296875,-1.21875 3.296875,-2.59375 0,-0.921875 -0.78125,-1.765625 -2.296875,-1.765625 h -3.6875 c -0.234375,0 -0.34375,0 -0.34375,0.21875 0,0.125 0.109375,0.125 0.296875,0.125 0.71875,0 0.71875,0.09375 0.71875,0.21875 0,0.03125 0,0.09375 -0.046875,0.28125 L 1.875,-0.890625 C 1.765625,-0.46875 1.75,-0.34375 0.90625,-0.34375 c -0.21875,0 -0.34375,0 -0.34375,0.21875 C 0.5625,0 0.671875,0 0.734375,0 0.96875,0 1.203125,-0.03125 1.4375,-0.03125 H 2.828125 C 3.0625,-0.03125 3.3125,0 3.53125,0 3.640625,0 3.765625,0 3.765625,-0.234375 3.765625,-0.34375 3.65625,-0.34375 3.484375,-0.34375 2.765625,-0.34375 2.75,-0.4375 2.75,-0.546875 2.75,-0.609375 2.765625,-0.6875 2.765625,-0.75 Z m 0.875,-3.546875 C 4.5,-7.796875 4.546875,-7.8125 5.015625,-7.8125 h 1.1875 c 0.890625,0 1.640625,0.28125 1.640625,1.171875 0,0.3125 -0.15625,1.328125 -0.703125,1.890625 -0.203125,0.203125 -0.78125,0.65625 -1.875,0.65625 h -1.6875 z m 0,0"
   id="id-838df84d-9843-4c50-8ec6-3f15c136c72c" />
      </g></g><g
     fill="#000000"
     fill-opacity="1"
     id="id-3b634e8f-bcd6-4412-92f2-93bca35075f3"
     transform="translate(-245.377,-138.747)">
    <g
   transform="translate(305.346,147.716)"
   id="g2518"><path
   d="m 3.890625,2.90625 c 0,-0.03125 0,-0.0625 -0.203125,-0.265625 C 2.484375,1.4375 1.8125,-0.53125 1.8125,-2.96875 c 0,-2.328125 0.5625,-4.328125 1.953125,-5.734375 0.125,-0.109375 0.125,-0.125 0.125,-0.171875 0,-0.0625 -0.0625,-0.09375 -0.109375,-0.09375 -0.15625,0 -1.140625,0.859375 -1.71875,2.03125 -0.609375,1.21875 -0.890625,2.484375 -0.890625,3.96875 0,1.0625 0.171875,2.484375 0.78125,3.75 C 2.671875,2.21875 3.640625,3 3.78125,3 3.828125,3 3.890625,2.96875 3.890625,2.90625 Z m 0,0"
   id="id-b340140b-56c8-48f8-bd8e-02475ae051ce" />
      </g></g><g
     fill="#000000"
     fill-opacity="1"
     id="id-148cb337-1fda-4662-b656-ec9c2c919d87"
     transform="translate(-245.377,-138.747)">
    <g
   transform="translate(309.898,147.716)"
   id="g4596"><path
   d="m 6.015625,-8 c 0.015625,-0.046875 0.03125,-0.109375 0.03125,-0.171875 0,-0.125 -0.125,-0.125 -0.140625,-0.125 -0.015625,0 -0.59375,0.046875 -0.65625,0.0625 -0.203125,0.015625 -0.390625,0.03125 -0.59375,0.046875 -0.3125,0.03125 -0.390625,0.03125 -0.390625,0.25 0,0.125 0.09375,0.125 0.265625,0.125 0.578125,0 0.59375,0.109375 0.59375,0.21875 0,0.078125 -0.015625,0.171875 -0.03125,0.203125 l -0.734375,2.90625 c -0.125,-0.3125 -0.453125,-0.78125 -1.078125,-0.78125 -1.34375,0 -2.796875,1.734375 -2.796875,3.515625 0,1.171875 0.6875,1.875 1.5,1.875 0.65625,0 1.21875,-0.515625 1.546875,-0.90625 0.125,0.703125 0.6875,0.90625 1.046875,0.90625 0.359375,0 0.640625,-0.21875 0.859375,-0.65625 0.1875,-0.40625 0.359375,-1.125 0.359375,-1.171875 0,-0.0625 -0.046875,-0.109375 -0.125,-0.109375 C 5.5625,-1.8125 5.5625,-1.75 5.515625,-1.578125 5.328125,-0.875 5.109375,-0.125 4.609375,-0.125 4.265625,-0.125 4.25,-0.4375 4.25,-0.671875 c 0,-0.046875 0,-0.296875 0.078125,-0.625 z M 3.59375,-1.421875 C 3.53125,-1.21875 3.53125,-1.1875 3.375,-0.96875 3.109375,-0.640625 2.578125,-0.125 2.015625,-0.125 1.53125,-0.125 1.25,-0.5625 1.25,-1.265625 c 0,-0.65625 0.375,-2 0.609375,-2.5 0.40625,-0.84375 0.96875,-1.265625 1.421875,-1.265625 0.796875,0 0.953125,0.984375 0.953125,1.078125 0,0.015625 -0.03125,0.15625 -0.046875,0.1875 z m 0,0"
   id="id-efd8e6ae-576c-4f91-bbff-47d414f04e79" />
      </g></g><g
     fill="#000000"
     fill-opacity="1"
     id="id-52d61ab4-5054-4751-bd1e-e9b12c8c245c"
     transform="translate(-245.377,-138.747)">
    <g
   transform="translate(315.981,147.716)"
   id="g9455"><path
   d="m 1.90625,-8.53125 c 0,-0.21875 0,-0.4375 -0.25,-0.4375 -0.234375,0 -0.234375,0.21875 -0.234375,0.4375 V 2.5625 c 0,0.203125 0,0.421875 0.234375,0.421875 0.25,0 0.25,-0.21875 0.25,-0.421875 z m 0,0"
   id="id-8dd10cbf-81f0-4b65-9803-120b882dc493" />
      </g></g><g
     fill="#000000"
     fill-opacity="1"
     id="id-fba6814c-5003-4d09-9f35-0ea38c18d98c"
     transform="translate(-245.377,-138.747)">
    <g
   transform="translate(319.302,147.716)"
   id="g6891"><path
   d="m 3.359375,-8 c 0.015625,-0.046875 0.03125,-0.109375 0.03125,-0.171875 0,-0.125 -0.109375,-0.125 -0.140625,-0.125 -0.015625,0 -0.59375,0.046875 -0.65625,0.0625 C 2.390625,-8.21875 2.21875,-8.203125 2,-8.1875 c -0.296875,0.03125 -0.390625,0.03125 -0.390625,0.25 0,0.125 0.09375,0.125 0.265625,0.125 0.59375,0 0.59375,0.109375 0.59375,0.21875 0,0.078125 -0.015625,0.171875 -0.03125,0.203125 L 0.703125,-0.46875 C 0.65625,-0.28125 0.65625,-0.265625 0.65625,-0.1875 c 0,0.265625 0.203125,0.3125 0.328125,0.3125 0.203125,0 0.359375,-0.15625 0.421875,-0.296875 L 1.9375,-2.328125 C 2,-2.59375 2.0625,-2.84375 2.125,-3.109375 2.265625,-3.609375 2.265625,-3.625 2.484375,-3.96875 2.71875,-4.3125 3.25,-5.03125 4.171875,-5.03125 c 0.484375,0 0.640625,0.359375 0.640625,0.828125 0,0.671875 -0.46875,1.984375 -0.71875,2.703125 -0.109375,0.28125 -0.171875,0.4375 -0.171875,0.65625 0,0.53125 0.375,0.96875 0.9375,0.96875 1.109375,0 1.53125,-1.765625 1.53125,-1.828125 0,-0.0625 -0.046875,-0.109375 -0.109375,-0.109375 -0.109375,0 -0.125,0.03125 -0.1875,0.234375 C 5.828125,-0.625 5.375,-0.125 4.90625,-0.125 c -0.125,0 -0.3125,0 -0.3125,-0.390625 0,-0.3125 0.140625,-0.6875 0.1875,-0.828125 0.21875,-0.5625 0.75,-1.984375 0.75,-2.671875 0,-0.71875 -0.421875,-1.25 -1.328125,-1.25 -0.671875,0 -1.28125,0.3125 -1.765625,0.9375 z m 0,0"
   id="id-5192e755-a315-4cd0-8c02-88f4c977d8bb" />
      </g></g><g
     fill="#000000"
     fill-opacity="1"
     id="id-bc0b0f43-9ded-4c2c-8a7c-ae10e68bef60"
     transform="translate(-245.377,-138.747)">
    <g
   transform="translate(326.04,147.716)"
   id="g6762"><path
   d="M 3.375,-2.96875 C 3.375,-3.890625 3.25,-5.359375 2.578125,-6.75 1.875,-8.1875 0.890625,-8.96875 0.765625,-8.96875 c -0.046875,0 -0.109375,0.03125 -0.109375,0.09375 0,0.046875 0,0.0625 0.203125,0.265625 1.203125,1.203125 1.859375,3.1875 1.859375,5.625 0,2.3125 -0.5625,4.3125 -1.9375,5.71875 C 0.65625,2.84375 0.65625,2.875 0.65625,2.90625 0.65625,2.96875 0.71875,3 0.765625,3 0.921875,3 1.90625,2.140625 2.484375,0.96875 3.09375,-0.25 3.375,-1.546875 3.375,-2.96875 Z m 0,0"
   id="id-685c2fff-d5c1-4664-975b-cda1ef60ed1a" />
      </g></g><g
     fill="#000000"
     fill-opacity="1"
     id="id-229f68f8-887f-4fd4-9e09-e61b37dfef76"
     transform="translate(-245.377,-138.747)">
    <g
   transform="translate(333.249,147.716)"
   id="g3777"><path
   d="m 2.296875,-2.984375 c 0,-0.34375 -0.28125,-0.640625 -0.640625,-0.640625 -0.34375,0 -0.625,0.296875 -0.625,0.640625 0,0.34375 0.28125,0.625 0.625,0.625 0.359375,0 0.640625,-0.28125 0.640625,-0.625 z m 0,0"
   id="id-70865f20-6429-4241-8596-c96380805ea5" />
      </g></g><g
     fill="#000000"
     fill-opacity="1"
     id="id-273cd534-5c1d-4998-9759-86e339b9c63c"
     transform="translate(-245.377,-138.747)">
    <g
   transform="translate(339.227,147.716)"
   id="g5369"><path
   d="m 3.53125,-3.796875 h 2.015625 c 1.65625,0 3.296875,-1.21875 3.296875,-2.59375 0,-0.921875 -0.78125,-1.765625 -2.296875,-1.765625 h -3.6875 c -0.234375,0 -0.34375,0 -0.34375,0.21875 0,0.125 0.109375,0.125 0.296875,0.125 0.71875,0 0.71875,0.09375 0.71875,0.21875 0,0.03125 0,0.09375 -0.046875,0.28125 L 1.875,-0.890625 C 1.765625,-0.46875 1.75,-0.34375 0.90625,-0.34375 c -0.21875,0 -0.34375,0 -0.34375,0.21875 C 0.5625,0 0.671875,0 0.734375,0 0.96875,0 1.203125,-0.03125 1.4375,-0.03125 H 2.828125 C 3.0625,-0.03125 3.3125,0 3.53125,0 3.640625,0 3.765625,0 3.765625,-0.234375 3.765625,-0.34375 3.65625,-0.34375 3.484375,-0.34375 2.765625,-0.34375 2.75,-0.4375 2.75,-0.546875 2.75,-0.609375 2.765625,-0.6875 2.765625,-0.75 Z m 0.875,-3.546875 C 4.5,-7.796875 4.546875,-7.8125 5.015625,-7.8125 h 1.1875 c 0.890625,0 1.640625,0.28125 1.640625,1.171875 0,0.3125 -0.15625,1.328125 -0.703125,1.890625 -0.203125,0.203125 -0.78125,0.65625 -1.875,0.65625 h -1.6875 z m 0,0"
   id="id-654c7906-a6a7-4335-ab06-cf6b1d495929" />
      </g></g><g
     fill="#000000"
     fill-opacity="1"
     id="id-884326d3-ef15-4e10-8bca-cb098b005b78"
     transform="translate(-245.377,-138.747)">
    <g
   transform="translate(348.398,147.716)"
   id="g625"><path
   d="m 3.890625,2.90625 c 0,-0.03125 0,-0.0625 -0.203125,-0.265625 C 2.484375,1.4375 1.8125,-0.53125 1.8125,-2.96875 c 0,-2.328125 0.5625,-4.328125 1.953125,-5.734375 0.125,-0.109375 0.125,-0.125 0.125,-0.171875 0,-0.0625 -0.0625,-0.09375 -0.109375,-0.09375 -0.15625,0 -1.140625,0.859375 -1.71875,2.03125 -0.609375,1.21875 -0.890625,2.484375 -0.890625,3.96875 0,1.0625 0.171875,2.484375 0.78125,3.75 C 2.671875,2.21875 3.640625,3 3.78125,3 3.828125,3 3.890625,2.96875 3.890625,2.90625 Z m 0,0"
   id="id-0796b898-8601-4c4f-8369-192f5950dd95" />
      </g></g><g
     fill="#000000"
     fill-opacity="1"
     id="id-c46347c2-74bf-40a1-a861-5829cd87b36a"
     transform="translate(-245.377,-138.747)">
    <g
   transform="translate(352.95,147.716)"
   id="g8105"><path
   d="m 3.359375,-8 c 0.015625,-0.046875 0.03125,-0.109375 0.03125,-0.171875 0,-0.125 -0.109375,-0.125 -0.140625,-0.125 -0.015625,0 -0.59375,0.046875 -0.65625,0.0625 C 2.390625,-8.21875 2.21875,-8.203125 2,-8.1875 c -0.296875,0.03125 -0.390625,0.03125 -0.390625,0.25 0,0.125 0.09375,0.125 0.265625,0.125 0.59375,0 0.59375,0.109375 0.59375,0.21875 0,0.078125 -0.015625,0.171875 -0.03125,0.203125 L 0.703125,-0.46875 C 0.65625,-0.28125 0.65625,-0.265625 0.65625,-0.1875 c 0,0.265625 0.203125,0.3125 0.328125,0.3125 0.203125,0 0.359375,-0.15625 0.421875,-0.296875 L 1.9375,-2.328125 C 2,-2.59375 2.0625,-2.84375 2.125,-3.109375 2.265625,-3.609375 2.265625,-3.625 2.484375,-3.96875 2.71875,-4.3125 3.25,-5.03125 4.171875,-5.03125 c 0.484375,0 0.640625,0.359375 0.640625,0.828125 0,0.671875 -0.46875,1.984375 -0.71875,2.703125 -0.109375,0.28125 -0.171875,0.4375 -0.171875,0.65625 0,0.53125 0.375,0.96875 0.9375,0.96875 1.109375,0 1.53125,-1.765625 1.53125,-1.828125 0,-0.0625 -0.046875,-0.109375 -0.109375,-0.109375 -0.109375,0 -0.125,0.03125 -0.1875,0.234375 C 5.828125,-0.625 5.375,-0.125 4.90625,-0.125 c -0.125,0 -0.3125,0 -0.3125,-0.390625 0,-0.3125 0.140625,-0.6875 0.1875,-0.828125 0.21875,-0.5625 0.75,-1.984375 0.75,-2.671875 0,-0.71875 -0.421875,-1.25 -1.328125,-1.25 -0.671875,0 -1.28125,0.3125 -1.765625,0.9375 z m 0,0"
   id="id-61114878-5e02-4452-889b-710d73fe98d5" />
      </g></g><g
     fill="#000000"
     fill-opacity="1"
     id="id-99c3f8a9-ab32-4a9e-bbdf-aef320ede8f3"
     transform="translate(-245.377,-138.747)">
    <g
   transform="translate(359.689,147.716)"
   id="g9995"><path
   d="M 3.375,-2.96875 C 3.375,-3.890625 3.25,-5.359375 2.578125,-6.75 1.875,-8.1875 0.890625,-8.96875 0.765625,-8.96875 c -0.046875,0 -0.109375,0.03125 -0.109375,0.09375 0,0.046875 0,0.0625 0.203125,0.265625 1.203125,1.203125 1.859375,3.1875 1.859375,5.625 0,2.3125 -0.5625,4.3125 -1.9375,5.71875 C 0.65625,2.84375 0.65625,2.875 0.65625,2.90625 0.65625,2.96875 0.71875,3 0.765625,3 0.921875,3 1.90625,2.140625 2.484375,0.96875 3.09375,-0.25 3.375,-1.546875 3.375,-2.96875 Z m 0,0"
   id="id-7721ba2a-ea0b-4075-aeb0-dea068d41f1d" />
      </g></g><path
     fill="none"
     stroke-width="0.478"
     stroke-linecap="butt"
     stroke-linejoin="miter"
     stroke="#000000"
     stroke-opacity="1"
     stroke-miterlimit="10"
     d="M 50.798279,14.069153 H 118.86468"
     id="id-ef3ac3f7-d751-40d8-a091-a7595ddda49d" /><g
     fill="#000000"
     fill-opacity="1"
     id="id-410071f0-d796-4cf6-84aa-170941fd79fa"
     transform="translate(-245.377,-138.747)">
    <g
   transform="translate(318.029,164.004)"
   id="g9775"><path
   d="m 3.53125,-3.796875 h 2.015625 c 1.65625,0 3.296875,-1.21875 3.296875,-2.59375 0,-0.921875 -0.78125,-1.765625 -2.296875,-1.765625 h -3.6875 c -0.234375,0 -0.34375,0 -0.34375,0.21875 0,0.125 0.109375,0.125 0.296875,0.125 0.71875,0 0.71875,0.09375 0.71875,0.21875 0,0.03125 0,0.09375 -0.046875,0.28125 L 1.875,-0.890625 C 1.765625,-0.46875 1.75,-0.34375 0.90625,-0.34375 c -0.21875,0 -0.34375,0 -0.34375,0.21875 C 0.5625,0 0.671875,0 0.734375,0 0.96875,0 1.203125,-0.03125 1.4375,-0.03125 H 2.828125 C 3.0625,-0.03125 3.3125,0 3.53125,0 3.640625,0 3.765625,0 3.765625,-0.234375 3.765625,-0.34375 3.65625,-0.34375 3.484375,-0.34375 2.765625,-0.34375 2.75,-0.4375 2.75,-0.546875 2.75,-0.609375 2.765625,-0.6875 2.765625,-0.75 Z m 0.875,-3.546875 C 4.5,-7.796875 4.546875,-7.8125 5.015625,-7.8125 h 1.1875 c 0.890625,0 1.640625,0.28125 1.640625,1.171875 0,0.3125 -0.15625,1.328125 -0.703125,1.890625 -0.203125,0.203125 -0.78125,0.65625 -1.875,0.65625 h -1.6875 z m 0,0"
   id="id-18c7b6b9-1fad-4272-8a37-f28dba7705cb" />
      </g></g><g
     fill="#000000"
     fill-opacity="1"
     id="id-d77b290a-2f1f-4f25-b35d-4ac5b2f5da02"
     transform="translate(-245.377,-138.747)">
    <g
   transform="translate(327.2,164.004)"
   id="g6689"><path
   d="m 3.890625,2.90625 c 0,-0.03125 0,-0.0625 -0.203125,-0.265625 C 2.484375,1.4375 1.8125,-0.53125 1.8125,-2.96875 c 0,-2.328125 0.5625,-4.328125 1.953125,-5.734375 0.125,-0.109375 0.125,-0.125 0.125,-0.171875 0,-0.0625 -0.0625,-0.09375 -0.109375,-0.09375 -0.15625,0 -1.140625,0.859375 -1.71875,2.03125 -0.609375,1.21875 -0.890625,2.484375 -0.890625,3.96875 0,1.0625 0.171875,2.484375 0.78125,3.75 C 2.671875,2.21875 3.640625,3 3.78125,3 3.828125,3 3.890625,2.96875 3.890625,2.90625 Z m 0,0"
   id="id-f5e09281-b43a-4a30-b56e-41a8e7ae1f8a" />
      </g></g><g
     fill="#000000"
     fill-opacity="1"
     id="id-bf966f2a-6ef0-48b5-8f2f-811262159b01"
     transform="translate(-245.377,-138.747)">
    <g
   transform="translate(331.752,164.004)"
   id="g9695"><path
   d="m 6.015625,-8 c 0.015625,-0.046875 0.03125,-0.109375 0.03125,-0.171875 0,-0.125 -0.125,-0.125 -0.140625,-0.125 -0.015625,0 -0.59375,0.046875 -0.65625,0.0625 -0.203125,0.015625 -0.390625,0.03125 -0.59375,0.046875 -0.3125,0.03125 -0.390625,0.03125 -0.390625,0.25 0,0.125 0.09375,0.125 0.265625,0.125 0.578125,0 0.59375,0.109375 0.59375,0.21875 0,0.078125 -0.015625,0.171875 -0.03125,0.203125 l -0.734375,2.90625 c -0.125,-0.3125 -0.453125,-0.78125 -1.078125,-0.78125 -1.34375,0 -2.796875,1.734375 -2.796875,3.515625 0,1.171875 0.6875,1.875 1.5,1.875 0.65625,0 1.21875,-0.515625 1.546875,-0.90625 0.125,0.703125 0.6875,0.90625 1.046875,0.90625 0.359375,0 0.640625,-0.21875 0.859375,-0.65625 0.1875,-0.40625 0.359375,-1.125 0.359375,-1.171875 0,-0.0625 -0.046875,-0.109375 -0.125,-0.109375 C 5.5625,-1.8125 5.5625,-1.75 5.515625,-1.578125 5.328125,-0.875 5.109375,-0.125 4.609375,-0.125 4.265625,-0.125 4.25,-0.4375 4.25,-0.671875 c 0,-0.046875 0,-0.296875 0.078125,-0.625 z M 3.59375,-1.421875 C 3.53125,-1.21875 3.53125,-1.1875 3.375,-0.96875 3.109375,-0.640625 2.578125,-0.125 2.015625,-0.125 1.53125,-0.125 1.25,-0.5625 1.25,-1.265625 c 0,-0.65625 0.375,-2 0.609375,-2.5 0.40625,-0.84375 0.96875,-1.265625 1.421875,-1.265625 0.796875,0 0.953125,0.984375 0.953125,1.078125 0,0.015625 -0.03125,0.15625 -0.046875,0.1875 z m 0,0"
   id="id-75f451a0-daf7-4e64-8294-f9a5261c71af" />
      </g></g><g
     fill="#000000"
     fill-opacity="1"
     id="id-1de61fc5-183a-42fd-9b07-9e6e0b420545"
     transform="translate(-245.377,-138.747)">
    <g
   transform="translate(337.835,164.004)"
   id="g9410"><path
   d="M 3.375,-2.96875 C 3.375,-3.890625 3.25,-5.359375 2.578125,-6.75 1.875,-8.1875 0.890625,-8.96875 0.765625,-8.96875 c -0.046875,0 -0.109375,0.03125 -0.109375,0.09375 0,0.046875 0,0.0625 0.203125,0.265625 1.203125,1.203125 1.859375,3.1875 1.859375,5.625 0,2.3125 -0.5625,4.3125 -1.9375,5.71875 C 0.65625,2.84375 0.65625,2.875 0.65625,2.90625 0.65625,2.96875 0.71875,3 0.765625,3 0.921875,3 1.90625,2.140625 2.484375,0.96875 3.09375,-0.25 3.375,-1.546875 3.375,-2.96875 Z m 0,0"
   id="id-8611493e-2dd3-4bab-bd3f-38b3a9002541" />
      </g></g></g>
  
</g></g></svg>
