<?xml version="1.0" encoding="UTF-8" standalone="no"?>
<!-- Created with Inkscape (http://www.inkscape.org/) -->

<svg
   width="122mm"
   height="74mm"
   viewBox="0 0 122 74"
   version="1.1"
   id="svg1"
   xml:space="preserve"
   inkscape:export-filename="mdumllatex.png"
   inkscape:export-xdpi="96"
   inkscape:export-ydpi="96"
   inkscape:version="1.3.2 (091e20ef0f, 2023-11-25, custom)"
   sodipodi:docname="team-icon.svg"
   xmlns:inkscape="http://www.inkscape.org/namespaces/inkscape"
   xmlns:sodipodi="http://sodipodi.sourceforge.net/DTD/sodipodi-0.dtd"
   xmlns="http://www.w3.org/2000/svg"
   xmlns:svg="http://www.w3.org/2000/svg"><sodipodi:namedview
     id="namedview1"
     pagecolor="#ffffff"
     bordercolor="#000000"
     borderopacity="0.25"
     inkscape:showpageshadow="2"
     inkscape:pageopacity="0.0"
     inkscape:pagecheckerboard="0"
     inkscape:deskcolor="#d1d1d1"
     inkscape:document-units="mm"
     inkscape:zoom="0.95677609"
     inkscape:cx="263.38451"
     inkscape:cy="151.02802"
     inkscape:window-width="1354"
     inkscape:window-height="732"
     inkscape:window-x="5"
     inkscape:window-y="29"
     inkscape:window-maximized="1"
     inkscape:current-layer="layer1" /><defs
     id="defs1"><style
       id="style1">.cls-1{fill:#fff;}</style></defs><g
     inkscape:label="Layer 1"
     inkscape:groupmode="layer"
     id="layer1"><g
       id="g5"
       transform="matrix(0.08801689,0,0,0.08801689,23.01279,6.0840873)"><path
         d="M 1113.24,695.75 C 1063.7,609.85 991.45,561.69 892.35,548.52 l -8,-1.06 3.88,-7.05 c 26.18,-47.48 50.6,-89.9 84.33,-128.13 39.1,-44.31 86,-76.77 143.41,-99.26 l 2,-0.79 2,0.79 c 65.89,25.91 118.43,58 156.17,95.3 38.78,38.37 63.06,83.37 72.16,133.77 l 1,5.71 -5.76,0.73 c -101.7,12.75 -173.92,60.87 -220.78,147.1 l -4.69,8.63 z"
         transform="translate(-492.67,-160)"
         id="path1" /><path
         class="cls-1"
         d="m 1118,318.14 c 129.64,51 206.87,125 224.93,224.93 C 1236.37,556.43 1163.64,609 1118,693 1070.16,610 997.72,557 893.07,543.07 941.78,454.71 992.41,367.33 1118,318.14 m 0,-11.82 -4,1.58 c -58.24,22.81 -105.85,55.76 -145.53,100.74 -34.11,38.66 -58.68,81.35 -85,129.12 l -7.77,14.09 16,2.12 c 97.29,12.93 168.22,60.21 216.85,144.53 l 9.82,17 9.38,-17.26 C 1173.62,613.69 1244.48,566.5 1344.3,554 l 11.52,-1.44 -2.07,-11.43 c -9.31,-51.53 -34.11,-97.52 -73.71,-136.7 -38.26,-37.86 -91.43,-70.33 -158,-96.51 l -4,-1.58 z"
         transform="translate(-492.67,-160)"
         id="path2" /><circle
         cx="625.33002"
         cy="118"
         r="112.5"
         id="circle2" /><path
         class="cls-1"
         d="m 1118,171 a 107,107 0 1 1 -107,107 107,107 0 0 1 107,-107 m 0,-11 a 118,118 0 1 0 83.44,34.56 A 117.22,117.22 0 0 0 1118,160 Z"
         transform="translate(-492.67,-160)"
         id="path3" /><path
         d="M 730.24,695.75 C 680.7,609.85 608.45,561.69 509.35,548.52 l -8,-1.06 3.88,-7.05 c 26.18,-47.48 50.6,-89.9 84.33,-128.13 C 628.68,368 675.59,335.51 733,313 l 2,-0.79 2,0.79 c 65.89,25.91 118.43,58 156.17,95.3 38.78,38.37 63.06,83.37 72.16,133.77 l 1,5.71 -5.76,0.73 c -101.7,12.75 -173.92,60.87 -220.78,147.1 l -4.69,8.63 z"
         transform="translate(-492.67,-160)"
         id="path4" /><path
         class="cls-1"
         d="m 735,318.14 c 129.64,51 206.87,125 224.93,224.93 C 853.37,556.43 780.64,609 735,693 687.16,610 614.72,557 510.07,543.07 558.78,454.71 609.41,367.33 735,318.14 m 0,-11.82 -4,1.58 c -58.24,22.81 -105.85,55.76 -145.53,100.74 -34.11,38.66 -58.68,81.35 -85,129.12 l -7.77,14.09 15.92,2.15 c 97.29,12.93 168.22,60.21 216.85,144.53 l 9.82,17 9.38,-17.26 C 790.62,613.69 861.48,566.5 961.3,554 l 11.52,-1.44 -2.07,-11.43 c -9.31,-51.53 -34.11,-97.52 -73.71,-136.7 -38.26,-37.86 -91.43,-70.33 -158,-96.51 l -4,-1.58 z"
         transform="translate(-492.67,-160)"
         id="path5" /><circle
         cx="242.33"
         cy="118"
         r="112.5"
         id="circle5" /><path
         class="cls-1"
         d="M 735,171 A 107,107 0 1 1 628,278 107,107 0 0 1 735,171 m 0,-11 A 118,118 0 1 0 818.44,194.56 117.22,117.22 0 0 0 735,160 Z"
         transform="translate(-492.67,-160)"
         id="path6" /><path
         d="M 923.24,842.75 C 873.7,756.85 801.44,708.69 702.35,695.52 l -8,-1.06 3.88,-7 c 26.18,-47.49 50.6,-89.91 84.33,-128.14 C 821.68,515 868.59,482.51 926,460 l 2,-0.79 2,0.79 c 65.89,25.91 118.43,58 156.17,95.3 38.78,38.37 63.06,83.37 72.16,133.77 l 1,5.72 -5.76,0.72 c -101.7,12.75 -173.92,60.87 -220.78,147.1 l -4.69,8.63 z"
         transform="translate(-492.67,-160)"
         id="path7" /><path
         class="cls-1"
         d="m 928,465.14 c 129.64,51 206.87,125 224.93,224.93 C 1046.37,703.43 973.64,756 928,840 880.16,757 807.72,704 703.07,690.07 751.78,601.71 802.41,514.33 928,465.14 m 0,-11.82 -4,1.58 c -58.24,22.81 -105.85,55.76 -145.53,100.74 -34.11,38.66 -58.68,81.35 -85,129.12 l -7.77,14.09 16,2.12 c 97.29,12.93 168.22,60.21 216.85,144.53 l 9.82,17 9.38,-17.26 c 46,-84.56 116.81,-131.75 216.63,-144.27 l 11.52,-1.44 -2.07,-11.43 c -9.31,-51.53 -34.11,-97.52 -73.71,-136.7 -38.26,-37.86 -91.43,-70.33 -158,-96.51 l -4,-1.58 z"
         transform="translate(-492.67,-160)"
         id="path8" /><circle
         cx="435.32999"
         cy="265"
         r="112.5"
         id="circle8" /><path
         class="cls-1"
         d="M 928,318 A 107,107 0 1 1 821,425 107,107 0 0 1 928,318 m 0,-11 a 118,118 0 1 0 83.44,34.56 A 117.22,117.22 0 0 0 928,307 Z"
         transform="translate(-492.67,-160)"
         id="path9" /></g></g></svg>
