<?xml version="1.0" encoding="UTF-8" standalone="no"?>
<!-- Created with Inkscape (http://www.inkscape.org/) -->

<svg
   width="122mm"
   height="74mm"
   viewBox="0 0 122 74"
   version="1.1"
   id="svg1"
   xml:space="preserve"
   inkscape:export-filename="mdumllatex.png"
   inkscape:export-xdpi="96"
   inkscape:export-ydpi="96"
   inkscape:version="1.3.2 (091e20ef0f, 2023-11-25, custom)"
   sodipodi:docname="mdumllatex.svg"
   xmlns:inkscape="http://www.inkscape.org/namespaces/inkscape"
   xmlns:sodipodi="http://sodipodi.sourceforge.net/DTD/sodipodi-0.dtd"
   xmlns="http://www.w3.org/2000/svg"
   xmlns:svg="http://www.w3.org/2000/svg"><sodipodi:namedview
     id="namedview1"
     pagecolor="#ffffff"
     bordercolor="#000000"
     borderopacity="0.25"
     inkscape:showpageshadow="2"
     inkscape:pageopacity="0.0"
     inkscape:pagecheckerboard="0"
     inkscape:deskcolor="#d1d1d1"
     inkscape:document-units="mm"
     inkscape:zoom="0.67654286"
     inkscape:cx="167.02563"
     inkscape:cy="195.84864"
     inkscape:window-width="1354"
     inkscape:window-height="732"
     inkscape:window-x="5"
     inkscape:window-y="29"
     inkscape:window-maximized="1"
     inkscape:current-layer="layer1" /><defs
     id="defs1" /><g
     inkscape:label="Layer 1"
     inkscape:groupmode="layer"
     id="layer1"><g
       id="g3"
       transform="matrix(1.9112502,0,0,1.9112502,-125.21176,-62.709065)"><path
         d="m 98.213333,59.795833 h -0.3175 c -0.132291,1.349375 -0.3175,2.989792 -2.645833,2.989792 h -1.058333 c -0.608542,0 -0.635,-0.07937 -0.635,-0.529167 V 55.245 c 0,-0.449792 0,-0.635 1.243541,-0.635 h 0.423334 v -0.396875 c -0.502709,0.02646 -1.666875,0.02646 -2.2225,0.02646 -0.502709,0 -1.534584,0 -1.984375,-0.02646 V 54.61 h 0.291041 c 1.005417,0 1.031875,0.132291 1.031875,0.608541 v 6.905625 c 0,0.47625 -0.02646,0.608542 -1.031875,0.608542 h -0.291041 v 0.396875 h 6.82625 z"
         id="path1-9"
         style="stroke-width:0.264583" /><path
         d="M 97.975208,54.186666 C 97.922291,54.027916 97.895833,53.975 97.737083,53.975 c -0.15875,0 -0.211666,0.05292 -0.264583,0.211666 l -2.116667,5.371042 c -0.07937,0.211667 -0.238125,0.635 -1.058333,0.635 v 0.3175 h 2.037292 v -0.3175 c -0.396875,0 -0.661459,-0.185208 -0.661459,-0.449792 0,-0.05292 0,-0.07937 0.02646,-0.185208 L 96.149583,58.42 h 2.619375 l 0.529167,1.349375 c 0.02646,0.05292 0.05292,0.105833 0.05292,0.15875 0,0.264583 -0.502709,0.264583 -0.740834,0.264583 v 0.3175 h 2.592909 v -0.3175 h -0.1852 c -0.60855,0 -0.68792,-0.07938 -0.7673,-0.343958 z m -0.502708,0.9525 1.164167,2.989792 h -2.354792 z"
         id="path2-3"
         style="stroke-width:0.264583" /><path
         d="m 108.53208,54.2925 h -8.01687 l -0.23813,2.936875 h 0.3175 c 0.18521,-2.116667 0.37042,-2.566459 2.38125,-2.566459 0.23813,0 0.58209,0 0.71438,0.02646 0.26458,0.05292 0.26458,0.185208 0.26458,0.502708 v 6.905625 c 0,0.449792 0,0.635 -1.37583,0.635 h -0.52917 v 0.396874 c 0.52917,-0.02646 1.87854,-0.02646 2.48708,-0.02646 0.60855,0 1.95792,0 2.51355,0.02646 v -0.396875 h -0.52917 c -1.37583,0 -1.37583,-0.185208 -1.37583,-0.635 v -6.879167 c 0,-0.264583 0,-0.449791 0.23812,-0.502708 0.13229,-0.02646 0.50271,-0.02646 0.74083,-0.02646 1.98438,0 2.16959,0.423333 2.3548,2.566458 h 0.3175 z"
         id="path3-6"
         style="stroke-width:0.264583" /><path
         d="m 115.59646,62.759166 h -0.3175 c -0.3175,2.010834 -0.635,2.989792 -2.88396,2.989792 h -1.74625 c -0.60854,0 -0.635,-0.07937 -0.635,-0.529167 v -3.518958 h 1.16417 c 1.27,0 1.42875,0.423333 1.42875,1.534583 h 0.3175 v -3.466041 h -0.3175 c 0,1.11125 -0.1323,1.534583 -1.42875,1.534583 h -1.16417 v -3.175 c 0,-0.423333 0.0265,-0.529167 0.635,-0.529167 h 1.69333 c 2.01084,0 2.35479,0.714375 2.56646,2.566459 h 0.3175 l -0.37042,-2.963334 h -7.38187 v 0.396875 h 0.29104 c 1.00542,0 1.03188,0.132292 1.03188,0.608542 V 65.0875 c 0,0.47625 -0.0265,0.608541 -1.03188,0.608541 h -0.29104 v 0.449792 h 7.56708 z"
         id="path4-0"
         style="stroke-width:0.264583" /><path
         d="m 119.56521,58.1025 1.79916,-2.645834 c 0.26459,-0.423333 0.71438,-0.846666 1.905,-0.846666 v -0.396875 h -3.14854 V 54.61 c 0.52917,0 0.82021,0.291041 0.82021,0.608541 0,0.132292 -0.0265,0.15875 -0.10583,0.291042 l -1.50813,2.2225 -1.69333,-2.54 c -0.0265,-0.02646 -0.0794,-0.132292 -0.0794,-0.185208 0,-0.15875 0.29104,-0.370417 0.84667,-0.396875 v -0.396875 c -0.4498,0.02646 -1.4023,0.02646 -1.905,0.02646 -0.39688,0 -1.21709,0 -1.7198,-0.02646 V 54.61 h 0.23813 c 0.71437,0 0.97896,0.07937 1.21708,0.449791 l 2.40771,3.65125 -2.14312,3.175 c -0.18521,0.264584 -0.58209,0.873125 -1.905,0.873125 v 0.396875 h 3.14854 v -0.396875 c -0.60854,0 -0.82021,-0.370416 -0.82021,-0.608541 0,-0.105834 0.0265,-0.15875 0.13229,-0.3175 l 1.85208,-2.751667 2.09021,3.148542 c 0.0265,0.05292 0.0529,0.105833 0.0529,0.132291 0,0.15875 -0.29104,0.370417 -0.84666,0.396875 v 0.396875 c 0.44979,-0.02646 1.42875,-0.02646 1.905,-0.02646 0.55562,0 1.16416,0 1.71979,0.02646 v -0.396875 h -0.23813 c -0.68791,0 -0.9525,-0.05292 -1.24354,-0.47625 z"
         id="path5"
         style="stroke-width:0.264583" /></g><g
       id="g1"
       transform="matrix(0.76001541,0,0,0.76001541,3.827271,2.9345702)"><path
         fill="#fbbd16"
         d="M 11.943023,79.324783 V 64.468596 l 2.85076,16.043867 4.640829,2.31024 2.98304,-13.336378 v 14.592437 l 5.233854,2.573987 V 62.024855 L 19.698358,58.261558 17.180135,70.014227 14.637894,55.840203 6.7295174,52.05615 v 24.649874 z m 0,0"
         id="path1"
         style="stroke-width:0.407018" /><path
         fill="#452e7f"
         d="m 28.382919,62.018749 8.305626,-4.311958 v 17.868534 l 11.490142,-5.94166 0.04478,6.73494 -19.819782,10.410728 z m 0,0"
         id="path2"
         style="stroke-width:0.407018" /><path
         fill="#962444"
         d="m 25.031119,36.048914 -5.873281,5.191116 c 0,0 11.461651,5.887527 12.854875,6.583532 1.39119,0.696407 3.372151,2.033871 1.230419,4.014833 -2.141328,1.979332 -4.497558,1.712327 -6.105283,0.910906 -1.607317,-0.804675 -13.496745,-6.798434 -13.496745,-6.798434 l -6.0527765,5.138205 c 0,0 11.6761495,5.940442 13.6050115,6.957987 1.928455,1.017547 9.103791,3.532923 15.90711,-1.766461 6.801285,-5.299386 5.838277,-7.226213 5.838277,-7.601485 0,-0.373641 -0.160772,-2.352974 -1.340313,-3.585428 -1.176691,-1.230417 -4.604604,-2.99688 -6.051556,-3.747421 -1.446544,-0.748916 -10.515738,-5.29735 -10.515738,-5.29735 z m 0,0"
         id="path3"
         style="stroke-width:0.407018" /><path
         fill="#6d6e71"
         d="m 47.976806,66.200054 c 0,0.871019 -0.685013,1.551555 -1.573942,1.551555 -0.880789,0 -1.581676,-0.681756 -1.581676,-1.551555 0,-0.852298 0.700887,-1.534461 1.581676,-1.534461 0.890556,0 1.573942,0.682163 1.573942,1.534461 z m -2.761622,0 c 0,0.682162 0.504296,1.225941 1.199076,1.225941 0.674023,0 1.168145,-0.543779 1.168145,-1.21658 0,-0.683793 -0.495749,-1.235302 -1.179541,-1.235302 -0.683792,0 -1.18768,0.551918 -1.18768,1.225941 z m 0.944282,0.804676 h -0.355734 v -1.534461 c 0.141234,-0.0285 0.337012,-0.04599 0.589771,-0.04599 0.291019,0 0.421264,0.04599 0.534009,0.111115 0.08426,0.06675 0.149787,0.187637 0.149787,0.337013 0,0.168506 -0.130251,0.299159 -0.318289,0.354513 v 0.01914 c 0.149373,0.05576 0.233629,0.168504 0.281657,0.373641 0.046,0.235257 0.07448,0.329279 0.111116,0.384633 h -0.383008 c -0.04803,-0.05535 -0.07489,-0.196997 -0.122507,-0.373235 -0.0285,-0.170134 -0.120885,-0.245026 -0.317883,-0.245026 h -0.16851 z m 0.0098,-0.869801 h 0.168507 c 0.195369,0 0.356141,-0.06511 0.356141,-0.224265 0,-0.141635 -0.103382,-0.23363 -0.32765,-0.23363 -0.09362,0 -0.158737,0.0081 -0.196998,0.0175 z m 0,0"
         id="path4"
         style="stroke-width:0.407018" /></g><g
       id="g2"
       transform="matrix(1.1947008,0,0,1.1947008,-5.0443782,-35.565954)"><path
         style="line-height:normal;font-variant-ligatures:normal;font-variant-position:normal;font-variant-caps:normal;font-variant-numeric:normal;font-variant-alternates:normal;font-variant-east-asian:normal;font-feature-settings:normal;font-variation-settings:normal;text-indent:0;text-align:start;text-decoration-line:none;text-decoration-style:solid;text-decoration-color:#000000;text-transform:none;text-orientation:mixed;white-space:normal;shape-padding:0;shape-margin:0;inline-size:0;isolation:auto;mix-blend-mode:normal;solid-color:#000000;solid-opacity:1;stroke-width:0.264583"
         d="m 43.113854,35.810825 c -1.544108,0 -2.809346,1.287727 -2.809346,2.826015 v 15.330487 c 0,1.538288 1.265238,2.826015 2.809082,2.826015 h 27.543653 c 1.543844,0 2.809082,-1.287727 2.809082,-2.826015 V 38.637104 c 0,-1.538287 -1.265502,-2.826014 -2.809082,-2.826014 H 43.893846 l -5.29e-4,-5.3e-4 h -0.779463 z m -0.0019,2.524919 h 27.545239 c 0.165365,0 0.284692,0.111918 0.284692,0.301625 v 15.329958 c 0,0.189706 -0.119856,0.301625 -0.284692,0.301625 H 43.11359 c -0.164836,0 -0.284692,-0.111919 -0.284692,-0.301625 V 38.63684 c 0,-0.189178 0.119327,-0.300303 0.283104,-0.301096 z"
         color="#000000"
         font-weight="400"
         font-family="sans-serif"
         overflow="visible"
         id="path1-7" /><path
         d="m 45.434515,51.620208 v -10.63625 h 3.09536 l 3.094831,3.910542 3.093773,-3.910542 h 3.094566 v 10.63625 h -3.094566 v -6.100233 l -3.094038,3.910542 -3.095095,-3.910542 v 6.100233 h -3.094567 z m 19.342099,0 -4.642114,-5.161756 h 3.094831 v -5.474494 h 3.095096 v 5.474229 h 3.095096 z m 0,0"
         id="path2-0"
         style="stroke-width:0.264583" /></g></g></svg>
